<?xml version="1.0" encoding="utf-8"?>
<!-- Generator: Adobe Illustrator 22.0.1, SVG Export Plug-In . SVG Version: 6.00 Build 0)  -->
<svg version="1.1" id="Layer_1" xmlns="http://www.w3.org/2000/svg" xmlns:xlink="http://www.w3.org/1999/xlink" x="0px" y="0px"
	 viewBox="0 0 121.7 121.7" style="enable-background:new 0 0 121.7 121.7;" xml:space="preserve">
<style type="text/css">
	.st0{fill:#FFFFFF;}
	.st1{fill:#1A8DCC;}
</style>
<g id="XMLID_1_">
	<g>
		<polygon class="st0" points="100,67.7 80.3,87.4 60.5,67.7 40.8,87.4 21,67.7 40.8,48 60.5,28.2 60.5,28.2 		"/>
		<path class="st1" d="M60.5,11c28,0,50.8,22.8,50.8,50.8c0,28-22.8,50.8-50.8,50.8c-28,0-50.8-22.8-50.8-50.8
			C9.7,33.8,32.5,11,60.5,11z M80.3,87.4L100,67.7L60.5,28.2l0,0L40.8,48L21,67.7l19.7,19.8l19.8-19.8L80.3,87.4z"/>
	</g>
	<g>
	</g>
</g>
</svg>
