<?xml version="1.0" encoding="utf-8"?>
<!-- Generator: Adobe Illustrator 22.0.1, SVG Export Plug-In . SVG Version: 6.00 Build 0)  -->
<svg version="1.1" id="Layer_1" xmlns="http://www.w3.org/2000/svg" xmlns:xlink="http://www.w3.org/1999/xlink" x="0px" y="0px"
	 viewBox="0 0 121.7 121.7" style="enable-background:new 0 0 121.7 121.7;" xml:space="preserve">
<style type="text/css">
	.st0{fill:#FFFFFF;}
	.st1{fill:#1A8DCC;}
</style>
<g>
	<g id="XMLID_1_">
		<g>
			<path class="st0" d="M61.2,39.5c12.3,0,22.3,10,22.3,22.3c0,12.3-10,22.3-22.3,22.3s-22.3-10-22.3-22.3
				C38.9,49.5,48.9,39.5,61.2,39.5z"/>
			<path class="st1" d="M61.2,11c28,0,50.8,22.8,50.8,50.8c0,28-22.8,50.8-50.8,50.8c-28,0-50.8-22.8-50.8-50.8
				C10.4,33.8,33.2,11,61.2,11z M83.6,61.8c0-12.3-10-22.3-22.3-22.3s-22.3,10-22.3,22.3c0,12.3,10,22.3,22.3,22.3
				S83.6,74.2,83.6,61.8z"/>
		</g>
		<g>
		</g>
	</g>
</g>
</svg>
