<?xml version="1.0" encoding="utf-8"?>
<!-- Generator: Adobe Illustrator 22.0.1, SVG Export Plug-In . SVG Version: 6.00 Build 0)  -->
<svg version="1.1" id="Layer_1" xmlns="http://www.w3.org/2000/svg" xmlns:xlink="http://www.w3.org/1999/xlink" x="0px" y="0px"
	 viewBox="0 0 121.7 121.7" style="enable-background:new 0 0 121.7 121.7;" xml:space="preserve">
<style type="text/css">
	.st0{fill:#231F20;}
</style>
<g>
	<path class="st0" d="M60.8,0.3L0.3,60.8l60.6,60.6l60.6-60.6L60.8,0.3z M14.1,61.1l46.7-46.7l46.7,46.7l-46.7,46.7L14.1,61.1z"/>
	<circle class="st0" cx="60.8" cy="41.3" r="14.3"/>
	<path class="st0" d="M60.8,0.3L0.3,60.8l60.6,60.6l60.6-60.6L60.8,0.3z M14.1,61.1l46.7-46.7l46.7,46.7l-46.7,46.7L14.1,61.1z"/>
	<g>
		<path class="st0" d="M60.8,59.3c-10.4,0-19.6,5.6-24.5,14l24.5,24.5l24.5-24.5C80.4,64.9,71.3,59.3,60.8,59.3z"/>
	</g>
</g>
</svg>
